<svg xmlns="http://www.w3.org/2000/svg" viewBox="0 0 24 24"><path id="icon" d="M12 1.024c-6.076 0-11 4.924-11 11 0 4.862 3.157 8.987 7.523 10.45 0.551 0.088 0.727-0.254 0.727-0.551 0-0.254 0-0.945 0-1.857 -3.047 0.658-3.696-1.475-3.696-1.475 -0.506-1.275-1.222-1.617-1.222-1.617 -1-0.683 0.077-0.66 0.077-0.66 1.101 0.078 1.683 1.133 1.683 1.133 0.957 1.673 2.575 1.178 3.201 0.912 0.099-0.715 0.385-1.197 0.693-1.473 -2.442-0.275-5.005-1.221-5.005-5.412 0-1.221 0.418-2.2 1.132-2.981 -0.11-0.274-0.495-1.419 0.11-2.904 0 0 0.924-0.297 3.025 1.122C10.119 6.47 11.065 6.348 12 6.348c0.936 0 1.882 0.122 2.75 0.363 2.102-1.419 3.025-1.122 3.025-1.122 0.604 1.485 0.22 2.629 0.109 2.904 0.715 0.781 1.134 1.76 1.134 2.981 0 4.201-2.574 5.125-5.026 5.4 0.395 0.342 0.758 1.012 0.758 2.035 0 1.475 0 2.662 0 3.014 0 0.297 0.176 0.648 0.736 0.551C19.855 21 23 16.887 23 12.024 23 5.949 18.076 1.024 12 1.024z"/></svg>