<svg xmlns="http://www.w3.org/2000/svg" viewBox="0 0 24 24"><path id="icon" d="M20.601 6.091v13.182c0 2-1.637 3.636-3.637 3.636h-6.637c-0.982 0-1.909-0.392-2.591-1.081L0.6 14.572c0 0 1.145-1.117 1.182-1.135 0.2-0.173 0.445-0.265 0.718-0.265 0.201 0 0.382 0.054 0.546 0.146 0.037 0.01 3.918 2.236 3.918 2.236V4.728c0-0.754 0.609-1.363 1.363-1.363 0.755 0 1.364 0.609 1.364 1.363v6.363H10.6V2.455c0-0.754 0.607-1.363 1.363-1.363 0.757 0 1.365 0.609 1.365 1.363v8.636h0.908V3.364C14.236 2.61 14.847 2 15.6 2c0.756 0 1.364 0.609 1.364 1.364v7.727h0.91v-5c0-0.754 0.608-1.364 1.363-1.364C19.991 4.728 20.601 5.337 20.601 6.091z"/></svg>