<?xml version="1.0" encoding="utf-8"?>
<!-- Generator: Adobe Illustrator 16.0.0, SVG Export Plug-In . SVG Version: 6.00 Build 0)  -->
<!DOCTYPE svg PUBLIC "-//W3C//DTD SVG 1.1//EN" "http://www.w3.org/Graphics/SVG/1.1/DTD/svg11.dtd">
<svg version="1.1" xmlns="http://www.w3.org/2000/svg" xmlns:xlink="http://www.w3.org/1999/xlink" x="0px" y="0px" width="24px"
	 height="24px" viewBox="0 0 24 24" enable-background="new 0 0 24 24" xml:space="preserve">
<g id="diagonals" display="none">
	<line display="inline" fill="none" stroke="#DA694F" stroke-width="0.25" stroke-miterlimit="10" x1="11" y1="3" x2="13" y2="5"/>
	<line display="inline" fill="none" stroke="#DA694F" stroke-width="0.25" stroke-miterlimit="10" x1="11" y1="5" x2="13" y2="3"/>
	<line display="inline" fill="none" stroke="#DA694F" stroke-width="0.25" stroke-miterlimit="10" x1="3" y1="11" x2="5" y2="13"/>
	<line display="inline" fill="none" stroke="#DA694F" stroke-width="0.25" stroke-miterlimit="10" x1="5" y1="11" x2="3" y2="13"/>
	
		<line display="inline" fill="none" stroke="#DA694F" stroke-width="0.25" stroke-miterlimit="10" x1="11" y1="19" x2="13" y2="21"/>
	
		<line display="inline" fill="none" stroke="#DA694F" stroke-width="0.25" stroke-miterlimit="10" x1="11" y1="21" x2="13" y2="19"/>
	
		<line display="inline" fill="none" stroke="#DA694F" stroke-width="0.25" stroke-miterlimit="10" x1="21" y1="11" x2="19" y2="13"/>
	
		<line display="inline" fill="none" stroke="#DA694F" stroke-width="0.25" stroke-miterlimit="10" x1="19" y1="11" x2="21" y2="13"/>
	<line display="inline" fill="none" stroke="#DA694F" stroke-width="0.25" stroke-miterlimit="10" x1="9" y1="3" x2="7" y2="5"/>
	<line display="inline" fill="none" stroke="#DA694F" stroke-width="0.25" stroke-miterlimit="10" x1="7" y1="3" x2="9" y2="5"/>
	<line display="inline" fill="none" stroke="#DA694F" stroke-width="0.25" stroke-miterlimit="10" x1="15" y1="3" x2="17" y2="5"/>
	<line display="inline" fill="none" stroke="#DA694F" stroke-width="0.25" stroke-miterlimit="10" x1="15" y1="5" x2="17" y2="3"/>
	<line display="inline" fill="none" stroke="#DA694F" stroke-width="0.25" stroke-miterlimit="10" x1="17" y1="3" x2="3" y2="17"/>
	<line display="inline" fill="none" stroke="#DA694F" stroke-width="0.25" stroke-miterlimit="10" x1="13" y1="3" x2="3" y2="13"/>
	<line display="inline" fill="none" stroke="#DA694F" stroke-width="0.25" stroke-miterlimit="10" x1="11" y1="3" x2="21" y2="13"/>
	<line display="inline" fill="none" stroke="#DA694F" stroke-width="0.25" stroke-miterlimit="10" x1="21" y1="3" x2="3" y2="21"/>
	<line display="inline" fill="none" stroke="#DA694F" stroke-width="0.25" stroke-miterlimit="10" x1="21" y1="7" x2="7" y2="21"/>
	
		<line display="inline" fill="none" stroke="#DA694F" stroke-width="0.25" stroke-miterlimit="10" x1="21" y1="11" x2="11" y2="21"/>
	<line display="inline" fill="none" stroke="#DA694F" stroke-width="0.25" stroke-miterlimit="10" x1="13" y1="21" x2="3" y2="11"/>
	<line display="inline" fill="none" stroke="#DA694F" stroke-width="0.25" stroke-miterlimit="10" x1="3" y1="15" x2="9" y2="21"/>
	
		<line display="inline" fill="none" stroke="#DA694F" stroke-width="0.25" stroke-miterlimit="10" x1="7" y1="3" x2="21.521" y2="17.521"/>
	
		<line display="inline" fill="none" stroke="#DA694F" stroke-width="0.25" stroke-miterlimit="10" x1="3" y1="3" x2="21.584" y2="21.584"/>
	<line display="inline" fill="none" stroke="#DA694F" stroke-width="0.25" stroke-miterlimit="10" x1="3" y1="7" x2="19" y2="23"/>
	
		<line display="inline" fill="none" stroke="#DA694F" stroke-width="0.25" stroke-miterlimit="10" x1="15" y1="21" x2="21" y2="15"/>
	<line display="inline" fill="none" stroke="#DA694F" stroke-width="0.25" stroke-miterlimit="10" x1="21" y1="9" x2="15" y2="3"/>
	<line display="inline" fill="none" stroke="#DA694F" stroke-width="0.25" stroke-miterlimit="10" x1="3" y1="9" x2="9" y2="3"/>
	<line display="inline" fill="none" stroke="#DA694F" stroke-width="0.25" stroke-miterlimit="10" x1="3" y1="7" x2="7" y2="3"/>
	<line display="inline" fill="none" stroke="#DA694F" stroke-width="0.25" stroke-miterlimit="10" x1="3" y1="11" x2="11" y2="3"/>
	<line display="inline" fill="none" stroke="#DA694F" stroke-width="0.25" stroke-miterlimit="10" x1="3" y1="15" x2="15" y2="3"/>
	<line display="inline" fill="none" stroke="#DA694F" stroke-width="0.25" stroke-miterlimit="10" x1="19" y1="3" x2="3" y2="19"/>
	<line display="inline" fill="none" stroke="#DA694F" stroke-width="0.25" stroke-miterlimit="10" x1="5" y1="21" x2="21" y2="5"/>
	<line display="inline" fill="none" stroke="#DA694F" stroke-width="0.25" stroke-miterlimit="10" x1="21" y1="9" x2="9" y2="21"/>
	
		<line display="inline" fill="none" stroke="#DA694F" stroke-width="0.25" stroke-miterlimit="10" x1="13" y1="21" x2="21" y2="13"/>
	<line display="inline" fill="none" stroke="#DA694F" stroke-width="0.25" stroke-miterlimit="10" x1="21" y1="19" x2="5" y2="3"/>
	<line display="inline" fill="none" stroke="#DA694F" stroke-width="0.25" stroke-miterlimit="10" x1="3" y1="5" x2="19" y2="21"/>
	<line display="inline" fill="none" stroke="#DA694F" stroke-width="0.25" stroke-miterlimit="10" x1="15" y1="21" x2="3" y2="9"/>
	<line display="inline" fill="none" stroke="#DA694F" stroke-width="0.25" stroke-miterlimit="10" x1="21" y1="15" x2="9" y2="3"/>
	<line display="inline" fill="none" stroke="#DA694F" stroke-width="0.25" stroke-miterlimit="10" x1="21" y1="11" x2="13" y2="3"/>
	<line display="inline" fill="none" stroke="#DA694F" stroke-width="0.25" stroke-miterlimit="10" x1="21" y1="7" x2="17" y2="3"/>
	<line display="inline" fill="none" stroke="#DA694F" stroke-width="0.25" stroke-miterlimit="10" x1="11" y1="21" x2="3" y2="13"/>
	<line display="inline" fill="none" stroke="#DA694F" stroke-width="0.25" stroke-miterlimit="10" x1="7" y1="21" x2="3" y2="17"/>
	
		<line display="inline" fill="none" stroke="#DA694F" stroke-width="0.25" stroke-miterlimit="10" x1="15" y1="3" x2="25.959" y2="13.959"/>
	
		<line display="inline" fill="none" stroke="#DA694F" stroke-width="0.25" stroke-miterlimit="10" x1="13" y1="3" x2="25.729" y2="15.729"/>
	
		<line display="inline" fill="none" stroke="#DA694F" stroke-width="0.25" stroke-miterlimit="10" x1="11" y1="3" x2="23.834" y2="15.834"/>
	
		<line display="inline" fill="none" stroke="#DA694F" stroke-width="0.25" stroke-miterlimit="10" x1="13" y1="21" x2="24.063" y2="9.938"/>
	
		<line display="inline" fill="none" stroke="#DA694F" stroke-width="0.25" stroke-miterlimit="10" x1="11" y1="21" x2="24.188" y2="7.813"/>
	
		<line display="inline" fill="none" stroke="#DA694F" stroke-width="0.25" stroke-miterlimit="10" x1="9" y1="3" x2="23.387" y2="17.386"/>
	
		<line display="inline" fill="none" stroke="#DA694F" stroke-width="0.25" stroke-miterlimit="10" x1="15" y1="21" x2="24.938" y2="11.063"/>
	
		<line display="inline" fill="none" stroke="#DA694F" stroke-width="0.25" stroke-miterlimit="10" x1="11" y1="3" x2="-0.495" y2="14.494"/>
	
		<line display="inline" fill="none" stroke="#DA694F" stroke-width="0.25" stroke-miterlimit="10" x1="11" y1="21" x2="-0.771" y2="9.229"/>
	
		<line display="inline" fill="none" stroke="#DA694F" stroke-width="0.25" stroke-miterlimit="10" x1="9" y1="21" x2="-1.229" y2="10.771"/>
	
		<line display="inline" fill="none" stroke="#DA694F" stroke-width="0.25" stroke-miterlimit="10" x1="13" y1="3" x2="-1.49" y2="17.49"/>
	<line display="inline" fill="none" stroke="#DA694F" stroke-width="0.25" stroke-miterlimit="10" x1="13" y1="21" x2="-2" y2="6"/>
	
		<line display="inline" fill="none" stroke="#DA694F" stroke-width="0.25" stroke-miterlimit="10" x1="9" y1="3" x2="-1.495" y2="13.495"/>
	
		<line display="inline" fill="none" stroke="#DA694F" stroke-width="0.25" stroke-miterlimit="10" x1="2.042" y1="13.959" x2="16.223" y2="-0.221"/>
	
		<line display="inline" fill="none" stroke="#DA694F" stroke-width="0.25" stroke-miterlimit="10" x1="23.834" y1="15.834" x2="7.167" y2="-0.833"/>
	
		<line display="inline" fill="none" stroke="#DA694F" stroke-width="0.25" stroke-miterlimit="10" x1="-0.495" y1="14.494" x2="15.041" y2="-1.042"/>
	
		<line display="inline" fill="none" stroke="#DA694F" stroke-width="0.25" stroke-miterlimit="10" x1="25.729" y1="15.729" x2="8.89" y2="-1.11"/>
	
		<line display="inline" fill="none" stroke="#DA694F" stroke-width="0.25" stroke-miterlimit="10" x1="25.959" y1="13.959" x2="10.313" y2="-1.688"/>
	
		<line display="inline" fill="none" stroke="#DA694F" stroke-width="0.25" stroke-miterlimit="10" x1="21" y1="7" x2="12.104" y2="-1.896"/>
	
		<line display="inline" fill="none" stroke="#DA694F" stroke-width="0.25" stroke-miterlimit="10" x1="3" y1="17" x2="19.271" y2="0.729"/>
	
		<line display="inline" fill="none" stroke="#DA694F" stroke-width="0.25" stroke-miterlimit="10" x1="3" y1="15" x2="18.25" y2="-0.25"/>
	
		<line display="inline" fill="none" stroke="#DA694F" stroke-width="0.25" stroke-miterlimit="10" x1="23.387" y1="17.386" x2="2.438" y2="-3.563"/>
	
		<line display="inline" fill="none" stroke="#DA694F" stroke-width="0.25" stroke-miterlimit="10" x1="3" y1="7" x2="10.563" y2="-0.563"/>
	
		<line display="inline" fill="none" stroke="#DA694F" stroke-width="0.25" stroke-miterlimit="10" x1="-1.495" y1="13.495" x2="13.271" y2="-1.271"/>
	<path display="inline" fill="none" stroke="#DA694F" stroke-width="0.25" stroke-miterlimit="10" d="M22.084,12.083"/>
	
		<line display="inline" fill="none" stroke="#DA694F" stroke-width="0.25" stroke-miterlimit="10" x1="21" y1="5" x2="12.219" y2="-3.781"/>
	
		<line display="inline" fill="none" stroke="#DA694F" stroke-width="0.25" stroke-miterlimit="10" x1="21" y1="3" x2="15.834" y2="-2.167"/>
	
		<line display="inline" fill="none" stroke="#DA694F" stroke-width="0.25" stroke-miterlimit="10" x1="3" y1="5" x2="9.636" y2="-1.636"/>
	
		<line display="inline" fill="none" stroke="#DA694F" stroke-width="0.25" stroke-miterlimit="10" x1="21.521" y1="17.521" x2="2.364" y2="-1.636"/>
</g>
<g id="rect_x5F_select" display="none">
	<path id="icon" display="inline" d="M3,15h2v2H3V15z M3,13h2v-2H3V13z M17,3h-2v2h2V3z M3,9h2V7H3V9z M21,7h-2v2h2V7z M21,11h-2v2
		h2V11z M7,5h2V3H7V5z M11,21h2v-2h-2V21z M11,5h2V3h-2V5z M7,21h2v-2H7V21z M3,21h2v-2H3V21z M3,5h2V3H3V5z M21,3h-2v2h2V3z M21,19
		v-4h-2v4h-4v2h4v2h2v-2h2v-2H21z"/>
</g>
<g id="freeform_x5F_path" display="none">
	
		<path display="inline" fill="none" stroke="#231F20" stroke-width="2" stroke-linecap="square" stroke-miterlimit="10" stroke-dasharray="0.05,4.1" d="
		M22,14c0,0-6,0-6-6s-6-6-6-6S4,2,4,8s0,6,0,6s0,6,6,6s10,0,10,0"/>
</g>
<g id="Layer_1" display="none">
	<g id="Layer_3" display="inline">
		<polygon fill="#231F20" points="21,19 21,17 19,17 19,19 17,19 17,21 19,21 19,23 21,23 21,21 23,21 23,19 		"/>
	</g>
	<rect x="21" y="13" display="inline" fill="#231F20" width="2" height="2"/>
	
		<rect x="17.451" y="11.9" transform="matrix(0.8399 0.5428 -0.5428 0.8399 9.9569 -7.9493)" display="inline" fill="#231F20" width="1.999" height="2"/>
	
		<rect x="15.25" y="8.95" transform="matrix(0.9642 -0.2651 0.2651 0.9642 -2.0564 4.6639)" display="inline" fill="#231F20" width="2" height="2"/>
	
		<rect x="14.83" y="5.26" transform="matrix(0.9705 -0.2409 0.2409 0.9705 -1.0418 3.9983)" display="inline" fill="#231F20" width="2" height="2"/>
	
		<rect x="12.809" y="2.19" transform="matrix(0.82 0.5724 -0.5724 0.82 4.3124 -7.3307)" display="inline" fill="#231F20" width="2" height="2"/>
	<rect x="21" y="13" display="inline" fill="#231F20" width="2" height="2"/>
	
		<rect x="17.451" y="11.9" transform="matrix(0.8399 0.5428 -0.5428 0.8399 9.9569 -7.9493)" display="inline" fill="#231F20" width="1.999" height="2"/>
	
		<rect x="15.25" y="8.95" transform="matrix(0.9642 -0.2651 0.2651 0.9642 -2.0564 4.6639)" display="inline" fill="#231F20" width="2" height="2"/>
	
		<rect x="14.83" y="5.26" transform="matrix(0.9705 -0.2409 0.2409 0.9705 -1.0418 3.9983)" display="inline" fill="#231F20" width="2" height="2"/>
	
		<rect x="12.809" y="2.19" transform="matrix(0.82 0.5724 -0.5724 0.82 4.3124 -7.3307)" display="inline" fill="#231F20" width="2" height="2"/>
	<rect x="9.25" y="1" display="inline" fill="#231F20" width="2" height="2"/>
	
		<rect x="5.7" y="1.96" transform="matrix(0.857 -0.5153 0.5153 0.857 -0.5672 3.8757)" display="inline" fill="#231F20" width="2" height="2"/>
	
		<rect x="3.35" y="4.76" transform="matrix(0.948 0.3181 -0.3181 0.948 2.0584 -1.0847)" display="inline" fill="#231F20" width="2" height="2"/>
	<rect x="3" y="8.5" display="inline" fill="#231F20" width="2" height="2"/>
	<rect x="12" y="12" display="inline" fill="#231F20" width="2" height="2"/>
</g>
<g id="Layer_5">
	<rect x="19" y="13" fill="#231F20" width="2" height="2"/>
	<rect x="15.5" y="11.5" transform="matrix(0.7071 0.7071 -0.7071 0.7071 13.6716 -8.0061)" fill="#231F20" width="2" height="2"/>
	<rect x="12.75" y="4.25" transform="matrix(0.8661 -0.4999 0.4999 0.8661 -0.7831 7.577)" fill="#231F20" width="2" height="2"/>
	<rect x="13.5" y="8" fill="#231F20" width="2" height="2"/>
	<rect x="10" y="1.25" transform="matrix(0.5001 -0.8659 0.8659 0.5001 3.5497 10.6504)" fill="#231F20" width="1.999" height="2"/>
	
		<rect x="5.5" y="1.25" transform="matrix(0.5003 0.8659 -0.8659 0.5003 5.1966 -4.5042)" fill="#231F20" width="2.001" height="2"/>
	<rect x="2.5" y="4" transform="matrix(0.8659 0.5001 -0.5001 0.8659 2.9698 -1.0802)" fill="#231F20" width="1.999" height="2"/>
	<rect x="1.5" y="7.75" fill="#231F20" width="2" height="2"/>
	<rect x="1.5" y="11.75" fill="#231F20" width="2" height="2"/>
	
		<rect x="2.25" y="15.501" transform="matrix(0.8661 -0.4999 0.4999 0.8661 -7.8134 3.8346)" fill="#231F20" width="2" height="1.999"/>
	
		<rect x="5.001" y="18.25" transform="matrix(0.5003 -0.8658 0.8658 0.5003 -13.6692 14.8134)" fill="#231F20" width="1.999" height="2"/>
	<rect x="9" y="19" fill="#231F20" width="2" height="2"/>
	<rect x="13" y="19" fill="#231F20" width="2" height="2"/>
	<polygon fill="#231F20" points="21,19 21,17 19,17 19,19 17,19 17,21 19,21 19,23 21,23 21,21 23,21 23,19 	"/>
</g>
</svg>
