<?xml version="1.0" encoding="utf-8"?>
<!-- Generator: Adobe Illustrator 16.0.0, SVG Export Plug-In . SVG Version: 6.00 Build 0)  -->
<!DOCTYPE svg PUBLIC "-//W3C//DTD SVG 1.0//EN" "http://www.w3.org/TR/2001/REC-SVG-20010904/DTD/svg10.dtd">
<svg version="1.0" id="Layer_1" xmlns="http://www.w3.org/2000/svg" xmlns:xlink="http://www.w3.org/1999/xlink" x="0px" y="0px"
	 width="24px" height="24px" viewBox="0 0 24 24" enable-background="new 0 0 24 24" xml:space="preserve">
<path id="icon" d="M7.5,2.5h9c2.76,0,5,2.24,5,5v9c0,2.76-2.24,5-5,5h-9c-2.76,0-5-2.24-5-5v-9C2.5,4.74,4.74,2.5,7.5,2.5 M7.5,4.5
	c-1.66,0-3,1.34-3,3v9c0,1.66,1.34,3,3,3h9c1.66,0,3-1.34,3-3v-9c0-1.66-1.34-3-3-3H7.5z"/>
<path id="rounded_rect_1_" opacity="0.5" fill="#0000FF" enable-background="new    " d="M8,3h8c2.76,0,5,2.24,5,5v8
	c0,2.76-2.24,5-5,5H8c-2.76,0-5-2.24-5-5V8C3,5.24,5.24,3,8,3 M8,5C6.34,5,5,6.34,5,8v8c0,1.66,1.34,3,3,3h8c1.66,0,3-1.34,3-3V8
	c0-1.66-1.34-3-3-3H8z"/>
<path id="rect" opacity="0.4" fill="#FF0000" enable-background="new    " d="M19,5v14H5V5H19 M21,3H3v18h18"/>
<path id="oval" opacity="0.4" fill="#00FF00" enable-background="new    " d="M12,1C5.928,1,1,5.928,1,12s4.928,11,11,11
	c6.072,0,11-4.928,11-11S18.072,1,12,1z M12,20.801c-4.862,0-8.8-3.939-8.8-8.801S7.138,3.2,12,3.2c4.861,0,8.801,3.938,8.801,8.8
	S16.861,20.801,12,20.801z"/>
</svg>
