<?xml version="1.0" encoding="utf-8"?>
<!DOCTYPE svg PUBLIC "-//W3C//DTD SVG 1.1//EN" "http://www.w3.org/Graphics/SVG/1.1/DTD/svg11.dtd">
<svg version="1.1" id="Layer_1" xmlns="http://www.w3.org/2000/svg" xmlns:xlink="http://www.w3.org/1999/xlink" x="0px" y="0px"
	 width="24px" height="24px" viewBox="0 0 24 24" enable-background="new 0 0 24 24" xml:space="preserve">
<rect x="3" y="15" width="2" height="2"/>
<rect x="3" y="11" width="2" height="2"/>
<rect x="15" y="3" width="2" height="2"/>
<rect x="3" y="7" width="2" height="2"/>
<rect x="19" y="7" width="2" height="2"/>
<rect x="19" y="11" width="2" height="2"/>
<rect x="7" y="3" width="2" height="2"/>
<rect x="11" y="19" width="2" height="2"/>
<rect x="11" y="3" width="2" height="2"/>
<rect x="7" y="19" width="2" height="2"/>
<rect x="3" y="19" width="2" height="2"/>
<rect x="3" y="3" width="2" height="2"/>
<rect x="19" y="3" width="2" height="2"/>
<rect x="19" y="15" width="2" height="2"/>
<rect x="19" y="19" width="2" height="2"/>
<rect x="15" y="19" width="2" height="2"/>
<polyline points="19,19 19,10 14,15 12,13 6,19 19,19 "/>
<circle cx="9" cy="9" r="2"/>
</svg>
