<svg xmlns="http://www.w3.org/2000/svg" width="24px" height="24px" viewBox="0 0 24 24">
<path id="icon" d="M18,8V7h-1V4h-3v3h-1v1c-1.104,0-2,0.896-2,2v10c0,1.104,0.896,2,2,2h5c1.104,0,2-0.896,2-2V10C20,8.896,19.104,8,18,8z M18,20h-5V10h5V20z M6,3c0,0.552-0.448,1-1,1S4,3.552,4,3s0.448-1,1-1S6,2.448,6,3z M9,4c0,0.552-0.447,1-1,1C7.448,5,7,4.552,7,4 s0.448-1,1-1C8.553,3,9,3.448,9,4z M12,5c0,0.552-0.447,1-1,1c-0.552,0-1-0.448-1-1s0.448-1,1-1C11.553,4,12,4.448,12,5z M9,7 c0,0.552-0.447,1-1,1C7.448,8,7,7.552,7,7s0.448-1,1-1C8.553,6,9,6.448,9,7z M6,6c0,0.552-0.447,1-1,1C4.448,7,4,6.552,4,6 s0.448-1,1-1C5.553,5,6,5.448,6,6z M6,9c0,0.552-0.447,1-1,1c-0.552,0-1-0.448-1-1s0.448-1,1-1C5.553,8,6,8.448,6,9z"/></svg>