<svg xmlns="http://www.w3.org/2000/svg" width="24" height="24" viewBox="0 0 24 24"><path id="icon" d="M6,3c0,0.552-0.448,1-1,1S4,3.552,4,3s0.448-1,1-1S6,2.448,6,3z M5,5C4.448,5,4,5.448,4,6s0.448,1,1,1 c0.553,0,1-0.448,1-1S5.553,5,5,5z M5,8C4.448,8,4,8.448,4,9s0.448,1,1,1c0.553,0,1-0.448,1-1S5.553,8,5,8z M8,6 C7.448,6,7,6.448,7,7s0.448,1,1,1c0.553,0,1-0.448,1-1S8.553,6,8,6z M8,3C7.448,3,7,3.448,7,4s0.448,1,1,1c0.553,0,1-0.448,1-1 S8.553,3,8,3z M19,8.278V7h-1h-1V4h-3v3h-1h-1v1.278C11.405,8.624,11,9.262,11,10v10c0,1.104,0.896,2,2,2h5c1.104,0,2-0.896,2-2V10 C20,9.262,19.595,8.625,19,8.278z M12,5c0-0.552-0.447-1-1-1c-0.552,0-1,0.448-1,1s0.448,1,1,1C11.553,6,12,5.552,12,5z"/></svg>