<svg xmlns="http://www.w3.org/2000/svg" width="24" height="24" viewBox="0 0 24 24"><path id="icon" d="M5,3c0,0.552-0.448,1-1,1S3,3.552,3,3s0.448-1,1-1S5,2.448,5,3z M4,5C3.448,5,3,5.448,3,6s0.448,1,1,1 c0.553,0,1-0.448,1-1S4.553,5,4,5z M4,8C3.448,8,3,8.448,3,9s0.448,1,1,1c0.553,0,1-0.448,1-1S4.553,8,4,8z M7,6 C6.448,6,6,6.448,6,7s0.448,1,1,1c0.553,0,1-0.448,1-1S7.553,6,7,6z M7,3C6.448,3,6,3.448,6,4s0.448,1,1,1c0.553,0,1-0.448,1-1 S7.553,3,7,3z M18,8.278V7h-1h-1V4h-3v3h-1h-1v1.278C10.405,8.624,10,9.262,10,10v10c0,1.104,0.896,2,2,2h5c1.104,0,2-0.896,2-2V10 C19,9.262,18.596,8.625,18,8.278z M11,5c0-0.552-0.447-1-1-1C9.448,4,9,4.448,9,5s0.448,1,1,1C10.553,6,11,5.552,11,5z"/></svg>