<svg xmlns="http://www.w3.org/2000/svg" viewBox="0 0 24 24"><path id="icon" d="M16 6V4c0-1.11-0.891-2-2-2h-4C8.89 2 8 2.89 8 4v2H2v13c0 1.109 0.89 2 2 2h0.259C4.094 20.36 4 19.691 4 19c0-1.46 0.39-2.82 1.07-4l3.47 6h0.01 1.229C9.3 20.469 9 19.771 9 19c0-1.656 1.343-3 3-3 1.656 0 3 1.344 3 3 0 0.771-0.3 1.469-0.779 2h1.229c0.34-0.6 0.55-1.27 0.55-2 0-1.2-0.54-2.27-1.38-3h4.79c0.38 0.93 0.59 1.939 0.59 3 0 0.691-0.097 1.359-0.263 2H20c1.109 0 2-0.891 2-2V6H16zM10 4h4v2h-4V4zM12 15c-1.94 0-3.55 1.38-3.92 3.21L5.7 14.08C7.16 12.21 9.44 11 12 11c2.96 0 5.54 1.609 6.92 4H12z"/></svg>