<svg xmlns="http://www.w3.org/2000/svg" width="24" height="24" viewBox="0 0 24 24"><path id="icon" d="M21 15h-2v-2h2V15zM17.9 12.5L16.5 11.1 15.1 12.5l1.4 1.4L17.9 12.5zM14.1 3.9l-1.7 1 1 1.7 1.7-1L14.1 3.9zM15.5 8h-2v2h2V8zM10.6 0.9l-1 1.7 1.7 1 1-1.7L10.6 0.9zM7.9 2.6l-1-1.7 -1.7 1 1 1.7L7.9 2.6zM4.9 4.6l-1.7-1 -1 1.7 1.7 1L4.9 4.6zM3.5 7.8h-2v2h2V7.8zM3.5 11.8h-2v2h2V11.8zM3.6 15.1l-1.7 1 1 1.7 1.7-1L3.6 15.1zM5.6 17.9l-1 1.7 1.7 1 1-1.7L5.6 17.9zM11 19H9v2h2V19zM15 19h-2v2h2V19zM23 19v2h-2v2h-2v-2h-2v-2h2v-2h2v2H23z"/></svg>