<svg xmlns="http://www.w3.org/2000/svg" width="24px" height="24px" viewBox="0 0 24 24"><path id="icon" d="M21,15h-2v-2h2V15z M17.914,12.5L16.5,11.086L15.086,12.5l1.414,1.414L17.914,12.5z M14.116,3.884l-1.732,1 l1,1.732l1.732-1L14.116,3.884z M15.5,8h-2v2h2V8z M10.634,0.884l-1,1.732l1.732,1l1-1.731L10.634,0.884z M7.866,2.616l-1-1.732 l-1.732,1l1.001,1.732L7.866,2.616z M4.866,4.634l-1.731-1l-1,1.732l1.731,1L4.866,4.634z M3.5,7.75h-2v2h2V7.75z M3.5,11.75h-2v2h2 V11.75z M3.616,15.135l-1.732,1l1,1.73l1.732-1L3.616,15.135z M5.634,17.885l-1,1.73l1.732,1l1-1.73L5.634,17.885z M11,19H9v2h2V19z M15,19h-2v2h2V19z M23,19v2h-2v2h-2v-2h-2v-2h2v-2h2v2H23z"/></svg>
